<svg width="97" height="85" viewBox="0 0 97 85" fill="none" xmlns="http://www.w3.org/2000/svg">
<path d="M18.5 14.5C31.5 25 26 29.5 46 31.5C45.5 38.3333 47.5521 53.5373 42 54C30 55 28 59.5 21.5 66.5C24.5 54 15.5 67.5 6.5 78.5C11.5 57.5 -0.502435 80.2835 -5.00005 84.5C-5.16672 59 -4.61829 -4.26583 -2.5001 0.500014C3.5 14 10.5 18.5 5.50002 4.50001C6.46852 5.20437 25 31.5 18.5 14.5Z" fill="url(#paint0_linear_39_2)"/>
<g filter="url(#filter0_d_39_2)">
<path d="M14 44.2216C13.5265 44.2595 13.1572 44.437 12.892 44.7543C12.6269 45.0668 12.4943 45.5426 12.4943 46.1818C12.4943 46.589 12.544 46.9228 12.6435 47.1832C12.7382 47.4389 12.8684 47.6283 13.0341 47.7514C13.1998 47.8745 13.3892 47.9384 13.6023 47.9432C13.7775 47.9527 13.9361 47.9219 14.0781 47.8509C14.2154 47.7751 14.3409 47.6567 14.4545 47.4957C14.5634 47.3348 14.6629 47.1288 14.7528 46.8778C14.8428 46.6269 14.9233 46.3286 14.9943 45.983L15.25 44.7898C15.4205 43.9848 15.6454 43.2959 15.9247 42.723C16.2041 42.1501 16.5331 41.6813 16.9119 41.3168C17.286 40.9522 17.7074 40.6847 18.1761 40.5142C18.6449 40.339 19.1562 40.2491 19.7102 40.2443C20.6667 40.2491 21.4763 40.4882 22.1392 40.9616C22.8021 41.4351 23.3063 42.1122 23.652 42.9929C23.9976 43.8688 24.1705 44.9223 24.1705 46.1534C24.1705 47.4176 23.9834 48.5208 23.6094 49.4631C23.2353 50.4006 22.66 51.1297 21.8835 51.6506C21.1023 52.1667 20.1032 52.4271 18.8864 52.4318V48.6818C19.3314 48.6581 19.7055 48.5469 20.0085 48.348C20.3116 48.1491 20.5412 47.8698 20.6974 47.5099C20.8537 47.1454 20.9318 46.7121 20.9318 46.2102C20.9318 45.7888 20.8797 45.4361 20.7756 45.152C20.6714 44.8679 20.527 44.6525 20.3423 44.5057C20.1577 44.3589 19.947 44.2831 19.7102 44.2784C19.4877 44.2831 19.2936 44.3565 19.1278 44.4986C18.9574 44.6359 18.8059 44.8632 18.6733 45.1804C18.536 45.4976 18.4081 45.9261 18.2898 46.4659L17.9773 47.9148C17.6979 49.2027 17.2315 50.2183 16.5781 50.9616C15.92 51.7003 15.0227 52.0672 13.8864 52.0625C12.9631 52.0672 12.1558 51.821 11.4645 51.3239C10.7685 50.822 10.2263 50.1283 9.83807 49.2429C9.44981 48.3527 9.25568 47.3324 9.25568 46.1818C9.25568 45.0076 9.45218 43.992 9.84517 43.1349C10.2382 42.2779 10.7921 41.6174 11.5071 41.1534C12.2173 40.6847 13.0483 40.4479 14 40.4432V44.2216ZM24 38.7422H9.45455V32.4638C9.45455 31.3842 9.65104 30.4396 10.044 29.63C10.437 28.8203 11.0028 28.1906 11.7415 27.7408C12.4801 27.291 13.3655 27.0661 14.3977 27.0661C15.4394 27.0661 16.3177 27.2981 17.0327 27.7621C17.7476 28.2214 18.2874 28.8677 18.652 29.701C19.0166 30.5296 19.1989 31.4979 19.1989 32.6058V36.3558H16.1307V33.4013C16.1307 32.9373 16.0739 32.5419 15.9602 32.2152C15.8419 31.8838 15.6548 31.6304 15.3991 31.4553C15.1435 31.2753 14.8097 31.1854 14.3977 31.1854C13.9811 31.1854 13.6425 31.2753 13.3821 31.4553C13.117 31.6304 12.9228 31.8838 12.7997 32.2152C12.6719 32.5419 12.608 32.9373 12.608 33.4013V34.7933H24V38.7422ZM17.3239 30.2195L24 26.5831V30.8729L17.3239 34.424V30.2195Z" fill="white"/>
</g>
<g filter="url(#filter1_d_39_2)">
<path d="M91.3352 38.5549C93.5549 39.6689 93.5549 43.3311 91.3352 44.4451L66.8482 56.7343C65.0286 57.6475 63 56.095 63 53.7891V29.2109C63 26.905 65.0286 25.3525 66.8482 26.2657L91.3352 38.5549Z" fill="white"/>
<path d="M65 26C66.1046 26 67 26.8954 67 28V55C67 56.1046 66.1046 57 65 57H36.1416C34.678 57 33.7101 55.4796 34.3295 54.1536L40.1262 41.7431C40.3864 41.1861 40.3759 40.5403 40.0978 39.992L34.4735 28.9048C33.7986 27.5743 34.7653 26 36.2572 26H65Z" fill="white"/>
</g>
<path d="M62 26L62 57" stroke="#464551" stroke-width="4" stroke-dasharray="6 6"/>
<defs>
<filter id="filter0_d_39_2" x="5.25574" y="26.5831" width="22.9147" height="33.8488" filterUnits="userSpaceOnUse" color-interpolation-filters="sRGB">
<feFlood flood-opacity="0" result="BackgroundImageFix"/>
<feColorMatrix in="SourceAlpha" type="matrix" values="0 0 0 0 0 0 0 0 0 0 0 0 0 0 0 0 0 0 127 0" result="hardAlpha"/>
<feOffset dy="4"/>
<feGaussianBlur stdDeviation="2"/>
<feComposite in2="hardAlpha" operator="out"/>
<feColorMatrix type="matrix" values="0 0 0 0 0 0 0 0 0 0 0 0 0 0 0 0 0 0 0.25 0"/>
<feBlend mode="normal" in2="BackgroundImageFix" result="effect1_dropShadow_39_2"/>
<feBlend mode="normal" in="SourceGraphic" in2="effect1_dropShadow_39_2" result="shape"/>
</filter>
<filter id="filter1_d_39_2" x="30.1392" y="26" width="66.8608" height="39" filterUnits="userSpaceOnUse" color-interpolation-filters="sRGB">
<feFlood flood-opacity="0" result="BackgroundImageFix"/>
<feColorMatrix in="SourceAlpha" type="matrix" values="0 0 0 0 0 0 0 0 0 0 0 0 0 0 0 0 0 0 127 0" result="hardAlpha"/>
<feOffset dy="4"/>
<feGaussianBlur stdDeviation="2"/>
<feComposite in2="hardAlpha" operator="out"/>
<feColorMatrix type="matrix" values="0 0 0 0 0 0 0 0 0 0 0 0 0 0 0 0 0 0 0.25 0"/>
<feBlend mode="normal" in2="BackgroundImageFix" result="effect1_dropShadow_39_2"/>
<feBlend mode="normal" in="SourceGraphic" in2="effect1_dropShadow_39_2" result="shape"/>
</filter>
<linearGradient id="paint0_linear_39_2" x1="46" y1="37.5" x2="5.5" y2="72.5" gradientUnits="userSpaceOnUse">
<stop stop-color="#CD995C"/>
<stop offset="1" stop-color="#333848"/>
</linearGradient>
</defs>
</svg>
